<svg width="19" height="24" viewBox="0 0 19 24" fill="none" xmlns="http://www.w3.org/2000/svg">
<path fill-rule="evenodd" clip-rule="evenodd" d="M4.25919 1.26765C4.65096 0.876116 5.28611 0.876116 5.67786 1.26765L8.99142 4.58121C9.30082 4.89085 9.49122 5.07985 9.64452 5.21005C9.71592 5.27072 9.76282 5.30408 9.79269 5.32251C9.80692 5.33138 9.81626 5.33628 9.82162 5.33861C9.82652 5.34095 9.82933 5.34188 9.82933 5.34188C9.93013 5.37455 10.0386 5.37455 10.1394 5.34188C10.1394 5.34188 10.1422 5.34095 10.1471 5.33861C10.1525 5.33628 10.1618 5.33138 10.1761 5.32251C10.2059 5.30408 10.2528 5.27072 10.3242 5.21005C10.4775 5.07985 10.6679 4.89085 10.9773 4.58121L14.2909 1.26765C14.6827 0.876116 15.3178 0.876116 15.7096 1.26765C16.1013 1.65942 16.1013 2.29478 15.7096 2.68655L12.3706 6.02555C12.0945 6.30135 11.8463 6.54985 11.6227 6.73955C11.3833 6.94278 11.1073 7.13692 10.7594 7.25008C10.2556 7.41388 9.71312 7.41388 9.20936 7.25008C8.86146 7.13692 8.58543 6.94278 8.34602 6.73955C8.12249 6.54985 7.87422 6.30135 7.59819 6.02555C7.58979 6.01691 7.58116 6.00851 7.57253 5.99988L4.25919 2.68655C3.86743 2.29478 3.86743 1.65942 4.25919 1.26765Z" fill="white"/>
<path fill-rule="evenodd" clip-rule="evenodd" d="M4.25919 7.66676C4.65096 7.27499 5.28611 7.27499 5.67786 7.66676L8.99142 10.9801C9.30082 11.29 9.49122 11.479 9.64452 11.6092C9.71592 11.6698 9.76282 11.703 9.79269 11.7216C9.80692 11.7305 9.81626 11.7352 9.82162 11.7377C9.82652 11.7401 9.82933 11.741 9.82933 11.741C9.93013 11.7737 10.0386 11.7737 10.1394 11.741C10.1394 11.741 10.1422 11.7401 10.1471 11.7377C10.1525 11.7352 10.1618 11.7305 10.1761 11.7216C10.2059 11.703 10.2528 11.6698 10.3242 11.6092C10.4775 11.479 10.6679 11.29 10.9773 10.9801L14.2909 7.66676C14.6827 7.27499 15.3178 7.27499 15.7096 7.66676C16.1013 8.05852 16.1013 8.69366 15.7096 9.08542L12.3962 12.399L12.3706 12.4244C12.0945 12.7005 11.8463 12.949 11.6227 13.1387C11.3833 13.3419 11.1304 13.5239 10.7594 13.6492C10.1859 13.8426 9.71312 13.8128 9.20936 13.6492C8.86146 13.536 8.58543 13.3419 8.34602 13.1387C8.12249 12.949 7.87422 12.7005 7.59819 12.4244C7.58979 12.416 7.58116 12.4074 7.57253 12.399L4.25919 9.08542C3.86743 8.69366 3.86743 8.05852 4.25919 7.66676Z" fill="white"/>
<path fill-rule="evenodd" clip-rule="evenodd" d="M1.42372 14.2226C2.00951 13.6368 2.95924 13.6368 3.545 14.2226L8.49965 19.1769C8.96229 19.6403 9.24698 19.9229 9.47621 20.1176C9.58297 20.2083 9.6531 20.2578 9.69776 20.2857C9.71904 20.299 9.733 20.306 9.74102 20.3098C9.74835 20.3133 9.75254 20.3147 9.75254 20.3147C9.90326 20.3635 10.0655 20.3635 10.2162 20.3147C10.2162 20.3147 10.2204 20.3133 10.2277 20.3098C10.2358 20.306 10.2497 20.299 10.271 20.2857C10.3156 20.2578 10.3858 20.2083 10.4925 20.1176C10.7218 19.9229 11.0065 19.6403 11.4691 19.1769L16.4237 14.2226C17.0095 13.6368 17.9592 13.6368 18.545 14.2226C19.1308 14.8084 19.1308 15.7581 18.545 16.3439L13.5907 21.2986L13.5523 21.3366C13.1396 21.7493 12.7684 22.1209 12.4341 22.4046C12.0762 22.7085 11.698 22.9806 11.1432 23.168C10.2856 23.4572 9.57878 23.4125 8.82552 23.168C8.30532 22.9987 7.89258 22.7085 7.53461 22.4046C7.20037 22.1209 6.82914 21.7493 6.4164 21.3366C6.40384 21.324 6.39093 21.3111 6.37803 21.2986L1.42372 16.3439C0.837926 15.7581 0.837926 14.8084 1.42372 14.2226Z" fill="white"/>
</svg>
