<svg width="53" height="25" viewBox="0 0 53 25" fill="none" xmlns="http://www.w3.org/2000/svg">
<path d="M52.5685 2.78895C52.5317 2.77021 52.4913 2.75935 52.4501 2.75707C52.409 2.75479 52.3677 2.76113 52.3291 2.77569C52.2904 2.79025 52.2552 2.81272 52.2257 2.84164C52.1963 2.87057 52.1732 2.90532 52.158 2.94369C52.158 2.94369 51.2674 4.02053 50.5632 3.89105C49.859 3.76158 47.6358 3.85948 46.84 3.99211C46.0443 4.12474 45.1189 3.63527 45.5042 3.24684C45.5042 3.24684 45.5042 3.1079 46.2179 2.83632C46.6502 2.67789 47.0567 2.45656 47.4243 2.17948C48.0242 1.88664 48.5835 1.51725 49.0885 1.08053C49.6506 0.518425 49.2527 0.388952 49.2527 0.388952C49.2527 0.388952 48.9715 0.354215 45.5643 1.05843C44.809 1.18655 44.1281 1.59055 43.6538 2.19211C43.4958 2.38474 43.3601 2.53948 43.2401 2.66579C43.1179 2.8046 42.9849 2.93343 42.8422 3.05105C42.3927 3.2057 41.9279 3.31157 41.4559 3.36684C39.3494 3.50724 37.2523 3.76554 35.1748 4.14053C31.9506 4.69948 28.799 5.60579 25.938 7.14369C23.3832 8.51737 20.8601 8.63106 18.179 7.99C16.0917 7.49105 14.0264 6.90369 11.9327 6.43632C9.72213 5.94369 6.77265 5.17316 4.49897 5.17316C2.22529 5.17316 -0.127346 6.86895 0.251602 10.03C0.428444 11.5427 0.542128 11.4953 1.19897 13.3616C2.96107 17.4037 5.45265 20.8774 8.18107 24.0353C8.45265 24.3511 8.86318 24.3764 9.64318 24.089C9.74107 23.9785 9.0116 23.2743 8.81581 23.0879C8.60332 22.8741 8.403 22.6485 8.21581 22.4121C7.83371 21.8943 7.47371 21.3764 7.09476 20.8774C6.95581 20.6911 6.2895 19.7595 6.14739 19.5416C5.75265 18.8879 4.80529 17.1764 4.66002 16.8827C3.85792 15.3037 1.73897 11.4858 2.07371 9.22158C2.43055 7.48158 4.04423 6.58158 5.86318 6.89737C9.55792 7.52895 13.1895 8.45421 16.8338 9.32895C18.4411 9.71737 20.0643 9.8879 21.6938 10.1469C23.2159 10.3869 24.6906 10.0047 26.058 9.37316C28.4918 8.23373 31.0097 7.28355 33.5895 6.53106C35.5401 5.99109 37.5322 5.61401 39.5452 5.40369C39.8422 5.36895 40.998 5.29 41.3232 5.20158C42.2517 4.94895 42.8263 5.28684 43.2179 6.13C43.3439 6.45253 43.5391 6.74356 43.7895 6.98263C44.298 7.4279 44.2189 7.70263 43.7421 8.15421C41.159 10.6174 40.0506 13.8385 39.2895 17.1921C39.0368 18.3132 39.1632 19.4722 39.0969 20.6658C37.9001 20.1827 36.8327 19.6427 35.7527 19.1311C33.3938 18.0132 31.3158 16.3048 28.5306 16.0806C25.7453 15.8564 23.0011 15.1774 20.2601 14.5964C19.1264 14.3469 16.3159 13.6143 16.0443 13.5543C13.3354 12.7829 10.6722 11.8593 8.06739 10.7879C7.6673 10.6109 7.22263 10.5605 6.79307 10.6435C6.3635 10.7264 5.9696 10.9388 5.66423 11.2521C5.13371 11.7985 4.89371 12.5627 5.1116 13.6553C5.28213 14.5206 5.33581 15.3258 7.27476 19.0806C7.72412 19.9624 8.25261 20.8016 8.85371 21.5879C9.22318 22.0679 10.4706 23.7985 10.7485 23.9564C11.6359 24.2721 11.6959 23.9943 11.6959 23.9564C11.6517 23.7637 11.4874 23.6406 11.358 23.5111C8.85839 20.7446 7.08339 17.4018 6.1916 13.7816C6.03686 13.15 5.98634 12.5185 6.48844 12.0195C6.8895 11.6248 7.39476 11.6248 7.89686 11.729C8.04763 11.7838 8.19431 11.8492 8.33581 11.9248C14.9138 14.6943 20.5979 16.03 26.9485 17.3406C28.24 17.6058 29.6074 17.5869 30.7569 18.43C31.9064 19.2732 33.2832 19.9079 34.5464 20.669C35.999 21.5564 37.6852 22.0269 38.9674 23.1732C39.4707 23.6355 40.1053 23.9301 40.7831 24.0164C43.0853 24.3322 45.3526 23.7227 47.6484 23.7385C47.9642 23.7385 48.5264 23.6721 48.4727 23.1069C48.419 22.5416 47.898 22.6237 47.5506 22.5669C46.799 22.4406 46.0317 22.4058 45.2738 22.3143C43.8464 22.1469 42.5232 21.4332 41.0611 21.4616C40.6063 21.4616 40.5494 21.2911 40.5527 20.909C40.5434 19.3576 40.7691 17.8138 41.2221 16.33C41.8098 14.3026 42.9221 12.4661 44.4464 11.0058C44.6295 10.8353 44.9106 10.4374 45.1948 10.3964C45.2956 10.4492 45.389 10.515 45.4727 10.5921C45.6653 10.7848 46.3663 10.9079 46.5873 10.8795C46.8069 10.8688 47.0217 10.8138 47.2193 10.7177C47.4168 10.6216 47.5929 10.4865 47.7369 10.3205C47.8222 10.2294 47.8834 10.1184 47.9147 9.99761C47.9461 9.87682 47.947 9.75009 47.9169 9.62895C47.805 9.18022 47.7666 8.7163 47.8032 8.25527C47.9912 7.50221 47.9661 6.71169 47.7306 5.97211C48.0969 5.8679 48.6085 5.7479 49.3095 5.62158C51.0906 5.30579 51.9558 5.09421 52.5779 3.84369C52.5779 3.84369 53.0105 2.97527 52.5779 2.79842L52.5685 2.78895Z" fill="white"/>
</svg>
