<svg width="263" height="190" viewBox="0 0 263 190" fill="none" xmlns="http://www.w3.org/2000/svg">
<path d="M39.082 44.761C27.9769 55.5935 0 56.2021 0 56.2021C0 56.2021 27.8583 59.2618 39.082 69.3383C50.6833 79.7537 51.9662 107.052 51.9662 107.052C51.9662 107.052 52.5083 79.7799 63.9914 69.3383C75.3821 58.9807 103.073 56.2021 103.073 56.2021C103.073 56.2021 75.2565 55.864 63.9914 44.761C52.9434 33.8719 51.9662 5.35259 51.9662 5.35259C51.9662 5.35259 50.2363 33.8805 39.082 44.761Z" fill="white"/>
<path d="M89.545 9.33357C86.9149 11.8992 80.2888 12.0433 80.2888 12.0433C80.2888 12.0433 86.8868 12.768 89.545 15.1545C92.2927 17.6213 92.5966 24.0866 92.5966 24.0866C92.5966 24.0866 92.7249 17.6275 95.4446 15.1545C98.1424 12.7014 104.701 12.0433 104.701 12.0433C104.701 12.0433 98.1127 11.9632 95.4446 9.33357C92.828 6.75458 92.5966 0 92.5966 0C92.5966 0 92.1868 6.75661 89.545 9.33357Z" fill="white"/>
<path d="M108.434 38.8847C107.281 40.0098 104.375 40.073 104.375 40.073C104.375 40.073 107.269 40.3908 108.434 41.4373C109.639 42.5191 109.773 45.3542 109.773 45.3542C109.773 45.3542 109.829 42.5218 111.022 41.4373C112.205 40.3616 115.081 40.073 115.081 40.073C115.081 40.073 112.192 40.0379 111.022 38.8847C109.874 37.7538 109.773 34.7918 109.773 34.7918C109.773 34.7918 109.593 37.7547 108.434 38.8847Z" fill="white"/>
<path d="M215.06 81.36C214.961 81.3099 214.853 81.2808 214.743 81.2747C214.633 81.2686 214.522 81.2856 214.419 81.3246C214.315 81.3635 214.221 81.4237 214.142 81.5011C214.063 81.5785 214.002 81.6715 213.961 81.7742C213.961 81.7742 211.577 84.6561 209.693 84.3096C207.808 83.9631 201.858 84.2251 199.729 84.5801C197.599 84.935 195.123 83.625 196.154 82.5855C196.154 82.5855 196.154 82.2137 198.064 81.4868C199.22 81.0628 200.308 80.4705 201.292 79.7289C202.898 78.9452 204.395 77.9566 205.746 76.7878C207.25 75.2835 206.186 74.9369 206.186 74.9369C206.186 74.9369 205.433 74.844 196.314 76.7287C194.293 77.0716 192.471 78.1528 191.201 79.7627C190.779 80.2783 190.415 80.6924 190.094 81.0304C189.767 81.4019 189.411 81.7467 189.029 82.0615C187.826 82.4754 186.582 82.7587 185.319 82.9066C179.681 83.2824 174.069 83.9737 168.509 84.9773C159.88 86.4732 151.445 88.8987 143.789 93.0146C136.951 96.691 130.199 96.9952 123.023 95.2796C117.437 93.9442 111.91 92.3723 106.306 91.1215C100.39 89.8031 92.4966 87.7409 86.4116 87.7409C80.3265 87.7409 74.0302 92.2793 75.0444 100.739C75.5177 104.788 75.8219 104.661 77.5798 109.655C82.2957 120.473 88.9639 129.77 96.2659 138.221C96.9928 139.067 98.0915 139.134 100.179 138.365C100.441 138.069 98.4887 136.185 97.9647 135.686C97.396 135.114 96.8599 134.51 96.3589 133.877C95.3363 132.491 94.3728 131.105 93.3587 129.77C92.9868 129.271 91.2036 126.778 90.8232 126.195C89.7668 124.445 87.2314 119.865 86.8426 119.079C84.6959 114.853 79.025 104.635 79.9209 98.5756C80.8759 93.9189 85.1946 91.5102 90.0626 92.3554C99.9508 94.0457 109.67 96.5219 119.423 98.863C123.725 99.9025 128.069 100.359 132.43 101.052C136.503 101.694 140.45 100.672 144.11 98.9813C150.623 95.9319 157.362 93.3889 164.266 91.375C169.487 89.9299 174.818 88.9207 180.206 88.3579C181 88.2649 184.094 88.0536 184.964 87.817C187.449 87.1408 188.987 88.0451 190.035 90.3017C190.372 91.1649 190.894 91.9437 191.564 92.5836C192.925 93.7752 192.714 94.5105 191.438 95.7191C184.524 102.311 181.558 110.932 179.521 119.907C178.845 122.907 179.183 126.009 179.006 129.204C175.803 127.911 172.946 126.466 170.056 125.096C163.742 122.104 158.181 117.532 150.727 116.932C143.273 116.332 135.929 114.515 128.593 112.96C125.559 112.292 118.037 110.332 117.31 110.171C110.06 108.107 102.933 105.635 95.9617 102.767C94.891 102.294 93.7009 102.159 92.5513 102.381C91.4016 102.603 90.3474 103.171 89.5302 104.01C88.1103 105.472 87.468 107.517 88.0512 110.441C88.5075 112.757 88.6512 114.912 93.8404 124.961C95.043 127.321 96.4574 129.567 98.0661 131.671C99.0549 132.956 102.393 137.588 103.137 138.01C105.512 138.855 105.673 138.112 105.673 138.01C105.554 137.495 105.115 137.165 104.768 136.818C98.0787 129.415 93.3282 120.468 90.9415 110.779C90.5274 109.089 90.3922 107.399 91.736 106.064C92.8093 105.007 94.1616 105.007 95.5053 105.286C95.9088 105.433 96.3014 105.608 96.6801 105.81C114.285 113.222 129.497 116.797 146.493 120.304C149.95 121.014 153.609 120.964 156.685 123.22C159.762 125.477 163.446 127.175 166.827 129.212C170.715 131.587 175.228 132.846 178.659 135.914C180.006 137.151 181.704 137.94 183.519 138.171C189.68 139.016 195.748 137.385 201.892 137.427C202.737 137.427 204.242 137.249 204.098 135.737C203.954 134.224 202.56 134.444 201.63 134.292C199.619 133.954 197.565 133.86 195.537 133.615C191.717 133.167 188.175 131.257 184.262 131.333C183.045 131.333 182.893 130.877 182.902 129.854C182.877 125.702 183.481 121.571 184.694 117.6C186.266 112.174 189.243 107.259 193.322 103.351C193.812 102.894 194.565 101.829 195.325 101.72C195.595 101.861 195.845 102.037 196.069 102.243C196.585 102.759 198.461 103.089 199.052 103.013C199.64 102.984 200.215 102.837 200.744 102.58C201.272 102.322 201.744 101.961 202.129 101.517C202.357 101.273 202.521 100.976 202.605 100.653C202.689 100.329 202.691 99.9901 202.611 99.6659C202.311 98.465 202.208 97.2234 202.306 95.9895C202.81 93.9741 202.742 91.8585 202.112 89.8791C203.092 89.6002 204.461 89.2791 206.338 88.941C211.104 88.0958 213.42 87.5296 215.085 84.1828C215.085 84.1828 216.243 81.8587 215.085 81.3854L215.06 81.36Z" fill="white"/>
<path d="M242.431 146.527C248.275 152.228 263 152.549 263 152.549C263 152.549 248.338 154.159 242.431 159.462C236.325 164.944 235.649 179.312 235.649 179.312C235.649 179.312 235.364 164.958 229.32 159.462C223.325 154.011 208.751 152.549 208.751 152.549C208.751 152.549 223.391 152.371 229.32 146.527C235.135 140.796 235.649 125.786 235.649 125.786C235.649 125.786 236.56 140.8 242.431 146.527Z" fill="white"/>
<path d="M200.633 176.792C202.939 179.042 208.751 179.169 208.751 179.169C208.751 179.169 202.964 179.804 200.633 181.898C198.223 184.061 197.956 189.731 197.956 189.731C197.956 189.731 197.844 184.066 195.459 181.898C193.093 179.746 187.34 179.169 187.34 179.169C187.34 179.169 193.119 179.099 195.459 176.792C197.753 174.53 197.956 168.606 197.956 168.606C197.956 168.606 198.316 174.532 200.633 176.792Z" fill="white"/>
</svg>
