<svg width="152" height="25" viewBox="0 0 152 25" fill="none" xmlns="http://www.w3.org/2000/svg">
<mask id="mask0_65_857" style="mask-type:luminance" maskUnits="userSpaceOnUse" x="0" y="0" width="152" height="25">
<path d="M151.789 0.351562H0.210449V24.3516H151.789V0.351562Z" fill="white"/>
</mask>
<g mask="url(#mask0_65_857)">
<path d="M52.5685 2.78895C52.5317 2.77021 52.4913 2.75935 52.4501 2.75707C52.409 2.75479 52.3677 2.76113 52.3291 2.77569C52.2904 2.79025 52.2552 2.81272 52.2257 2.84164C52.1963 2.87057 52.1732 2.90532 52.158 2.94369C52.158 2.94369 51.2674 4.02053 50.5632 3.89105C49.859 3.76158 47.6358 3.85948 46.84 3.99211C46.0443 4.12474 45.1189 3.63527 45.5042 3.24684C45.5042 3.24684 45.5042 3.1079 46.2179 2.83632C46.6502 2.67789 47.0567 2.45656 47.4243 2.17948C48.0242 1.88664 48.5835 1.51725 49.0885 1.08053C49.6506 0.518425 49.2527 0.388952 49.2527 0.388952C49.2527 0.388952 48.9715 0.354215 45.5643 1.05843C44.809 1.18655 44.1281 1.59055 43.6538 2.19211C43.4958 2.38474 43.3601 2.53948 43.2401 2.66579C43.1179 2.8046 42.9849 2.93343 42.8422 3.05105C42.3927 3.2057 41.9279 3.31157 41.4559 3.36684C39.3494 3.50724 37.2523 3.76554 35.1748 4.14053C31.9506 4.69948 28.799 5.60579 25.938 7.14369C23.3832 8.51737 20.8601 8.63106 18.179 7.99C16.0917 7.49105 14.0264 6.90369 11.9327 6.43632C9.72213 5.94369 6.77265 5.17316 4.49897 5.17316C2.22529 5.17316 -0.127346 6.86895 0.251602 10.03C0.428444 11.5427 0.542128 11.4953 1.19897 13.3616C2.96107 17.4037 5.45265 20.8774 8.18107 24.0353C8.45265 24.3511 8.86318 24.3764 9.64318 24.089C9.74107 23.9785 9.0116 23.2743 8.81581 23.0879C8.60332 22.8741 8.403 22.6485 8.21581 22.4121C7.83371 21.8943 7.47371 21.3764 7.09476 20.8774C6.95581 20.6911 6.2895 19.7595 6.14739 19.5416C5.75265 18.8879 4.80529 17.1764 4.66002 16.8827C3.85792 15.3037 1.73897 11.4858 2.07371 9.22158C2.43055 7.48158 4.04423 6.58158 5.86318 6.89737C9.55792 7.52895 13.1895 8.45421 16.8338 9.32895C18.4411 9.71737 20.0643 9.8879 21.6938 10.1469C23.2159 10.3869 24.6906 10.0047 26.058 9.37316C28.4918 8.23373 31.0097 7.28355 33.5895 6.53106C35.5401 5.99109 37.5322 5.61401 39.5452 5.40369C39.8422 5.36895 40.998 5.29 41.3232 5.20158C42.2517 4.94895 42.8263 5.28684 43.2179 6.13C43.3439 6.45253 43.5391 6.74356 43.7895 6.98263C44.298 7.4279 44.2189 7.70263 43.7421 8.15421C41.159 10.6174 40.0506 13.8385 39.2895 17.1921C39.0368 18.3132 39.1632 19.4722 39.0969 20.6658C37.9001 20.1827 36.8327 19.6427 35.7527 19.1311C33.3938 18.0132 31.3158 16.3048 28.5306 16.0806C25.7453 15.8564 23.0011 15.1774 20.2601 14.5964C19.1264 14.3469 16.3159 13.6143 16.0443 13.5543C13.3354 12.7829 10.6722 11.8593 8.06739 10.7879C7.6673 10.6109 7.22263 10.5605 6.79307 10.6435C6.3635 10.7264 5.9696 10.9388 5.66423 11.2521C5.13371 11.7985 4.89371 12.5627 5.1116 13.6553C5.28213 14.5206 5.33581 15.3258 7.27476 19.0806C7.72412 19.9624 8.25261 20.8016 8.85371 21.5879C9.22318 22.0679 10.4706 23.7985 10.7485 23.9564C11.6359 24.2721 11.6959 23.9943 11.6959 23.9564C11.6517 23.7637 11.4874 23.6406 11.358 23.5111C8.85839 20.7446 7.08339 17.4018 6.1916 13.7816C6.03686 13.15 5.98634 12.5185 6.48844 12.0195C6.8895 11.6248 7.39476 11.6248 7.89686 11.729C8.04763 11.7838 8.19431 11.8492 8.33581 11.9248C14.9138 14.6943 20.5979 16.03 26.9485 17.3406C28.24 17.6058 29.6074 17.5869 30.7569 18.43C31.9064 19.2732 33.2832 19.9079 34.5464 20.669C35.999 21.5564 37.6852 22.0269 38.9674 23.1732C39.4707 23.6355 40.1053 23.9301 40.7831 24.0164C43.0853 24.3322 45.3526 23.7227 47.6484 23.7385C47.9642 23.7385 48.5264 23.6721 48.4727 23.1069C48.419 22.5416 47.898 22.6237 47.5506 22.5669C46.799 22.4406 46.0317 22.4058 45.2738 22.3143C43.8464 22.1469 42.5232 21.4332 41.0611 21.4616C40.6063 21.4616 40.5494 21.2911 40.5527 20.909C40.5434 19.3576 40.7691 17.8138 41.2221 16.33C41.8098 14.3026 42.9221 12.4661 44.4464 11.0058C44.6295 10.8353 44.9106 10.4374 45.1948 10.3964C45.2956 10.4492 45.389 10.515 45.4727 10.5921C45.6653 10.7848 46.3663 10.9079 46.5873 10.8795C46.8069 10.8688 47.0217 10.8138 47.2193 10.7177C47.4168 10.6216 47.5929 10.4865 47.7369 10.3205C47.8222 10.2294 47.8834 10.1184 47.9147 9.99761C47.9461 9.87682 47.947 9.75009 47.9169 9.62895C47.805 9.18022 47.7666 8.7163 47.8032 8.25527C47.9912 7.50221 47.9661 6.71169 47.7306 5.97211C48.0969 5.8679 48.6085 5.7479 49.3095 5.62158C51.0906 5.30579 51.9558 5.09421 52.5779 3.84369C52.5779 3.84369 53.0105 2.97527 52.5779 2.79842L52.5685 2.78895Z" fill="black"/>
<path d="M87.5291 9.32563C86.1649 9.32563 84.5481 9.32563 84.1091 9.25931C84.0417 9.74705 83.9011 10.2219 83.6923 10.6678C84.0081 10.6488 84.3807 10.6457 85.3817 10.6457C84.69 11.8296 83.9165 12.964 83.067 14.0404C82.4891 14.8046 81.0807 14.7794 80.2249 14.7794H79.8712C80.3954 14.2204 80.6418 13.7972 80.6418 12.1709C80.6418 10.3425 79.8333 9.32878 78.0554 9.32878H76.5302C74.6102 11.2962 74.1712 12.0794 74.1712 13.3267C74.1584 13.8469 74.3134 14.3573 74.6133 14.7825H73.7323C71.8628 14.7825 71.3986 14.4383 71.3986 12.9825C71.3986 10.8794 71.3986 10.1151 71.4207 9.70142C70.9397 9.8871 70.4345 10.003 69.9207 10.0456C69.9649 10.6362 70.0091 12.2562 70.0123 13.8636C69.2575 14.4383 67.9375 14.7225 65.8817 14.773H65.4649C63.2702 14.773 62.8533 14.1951 62.8312 12.8562C62.832 11.5418 62.7392 10.2289 62.5533 8.92773C62.0855 9.22534 61.5693 9.43906 61.0281 9.55931C61.3224 10.9313 61.5113 12.3238 61.5933 13.7246C60.826 14.413 59.6228 14.7572 58.4639 14.7572C57.8323 14.7572 57.4944 14.5741 57.4944 14.2267V13.1625C57.1796 13.3396 56.8349 13.4573 56.4775 13.5099C56.5028 13.8099 56.5028 14.4572 56.5028 14.9878C56.5249 15.9825 56.9165 16.6299 58.1639 16.6299C59.4112 16.6299 60.8923 16.1657 61.2617 15.5436C61.4196 15.2625 61.6186 14.9309 61.7575 14.6783C61.9186 15.9636 62.6796 16.6299 65.2817 16.6299L65.5975 16.6109C67.5965 16.5478 69.0333 16.2572 69.5165 15.6636C69.706 15.4141 69.9491 15.0699 70.1986 14.7509C70.3502 15.9572 71.1775 16.6457 73.5144 16.6457H79.7544C81.8323 16.6457 82.7796 16.2509 83.266 15.5594C83.5218 15.212 83.7744 14.8204 84.1217 14.2962C84.1217 15.7267 85.2302 16.6299 86.9639 16.6299C87.6333 16.6299 88.2112 16.5825 88.9281 16.5604C89.5975 15.313 90.4754 14.8962 90.4754 12.2846C90.4754 10.5067 89.3196 9.32563 87.5196 9.32563H87.5291ZM78.7944 14.8488C76.4354 14.8267 75.6049 14.0878 75.6049 12.6383C75.6158 11.9507 75.8509 11.2854 76.2744 10.7436H77.5375C78.8007 10.7436 79.1765 11.4604 79.1765 12.6604C79.1765 13.9551 79.0849 14.3941 78.7849 14.8551L78.7944 14.8488ZM88.947 14.6878C88.3957 14.7634 87.8391 14.794 87.2828 14.7794C85.9186 14.7794 85.3186 14.2488 85.3186 13.4404C85.3186 12.9036 85.4512 12.4299 86.386 10.7372H87.0523C88.3691 10.7372 89.0386 11.8236 89.0386 13.0488C89.0646 13.5968 89.0339 14.1461 88.947 14.6878Z" fill="black"/>
<path d="M116.343 7.87363C116.295 7.38108 116.295 6.88512 116.343 6.39258H114.656C114.678 6.85679 114.678 7.54837 114.656 7.87363H116.343Z" fill="black"/>
<path d="M122.765 5.14453C121.573 6.103 120.331 6.99793 119.045 7.82558V8.87716C120.687 7.81295 121.517 7.23506 122.973 6.1519C122.871 5.82804 122.801 5.49483 122.765 5.15716" fill="black"/>
<path d="M78.9086 7.87363C78.8644 7.38094 78.8644 6.88527 78.9086 6.39258H77.2002C77.2446 6.88526 77.2446 7.38095 77.2002 7.87363H78.9086Z" fill="black"/>
<path d="M132.877 9.9298C133.108 11.2688 133.338 13.9246 133.408 15.3835C133.038 16.3309 131.538 17.1614 130.518 17.6225C130.991 18.0183 131.415 18.4688 131.781 18.9646C132.249 18.6901 132.689 18.3729 133.098 18.0172C134.159 17.0225 134.624 15.6362 134.624 13.833C134.624 12.4246 134.529 10.4856 134.507 9.46875C133.994 9.70303 133.449 9.85847 132.89 9.9298" fill="black"/>
<path d="M148.417 10.0424H142.316C144.302 9.095 145.736 8.23921 147.309 7.3171C147.078 6.85336 146.928 6.35349 146.867 5.83921C145.967 6.55289 143.077 8.47289 140.513 10.0424C140.516 10.5467 140.471 11.0501 140.377 11.5456H147.956C149.39 11.5456 150.498 12.4456 150.498 13.8792C150.498 14.1571 150.476 14.4792 150.451 14.735C150.068 14.7749 149.683 14.7907 149.298 14.7824H139.209C138.577 14.7824 138.261 14.5266 138.261 13.9266V5.375C137.752 5.67175 137.184 5.85388 136.597 5.90868C136.758 7.10868 136.897 9.83394 136.989 14.735C137.011 15.9603 137.589 16.6298 138.7 16.6298C147.41 16.6298 146.636 16.5824 149.203 16.5824C149.558 16.5745 149.912 16.5904 150.264 16.6298C150.934 15.4519 151.79 14.7571 151.79 13.0929C151.79 11.3624 150.334 10.0424 148.417 10.0424Z" fill="black"/>
<path d="M126.963 10.043H120.842C122.924 9.00405 124.262 8.23984 125.832 7.31774C125.604 6.85328 125.455 6.35364 125.393 5.83984C124.493 6.55353 121.604 8.47353 119.039 10.043C119.043 10.5475 118.997 11.051 118.9 11.5462H126.479C127.91 11.5462 129.021 12.4462 129.021 13.8799C129.021 14.1578 128.996 14.4799 128.974 14.7357C128.59 14.7756 128.204 14.7914 127.818 14.783H119.513C117.432 14.783 116.576 14.3883 116.485 12.8157C116.415 11.7988 116.368 10.6051 116.346 9.4651C115.834 9.70172 115.288 9.85828 114.729 9.92932C114.959 11.2683 115.19 13.9272 115.259 15.383C114.89 16.3304 113.39 17.1609 112.373 17.622C112.84 18.0186 113.259 18.4691 113.62 18.9641C114.088 18.6896 114.528 18.3725 114.937 18.0167C115.629 17.3572 116.1 16.5003 116.286 15.563C116.693 16.2957 117.593 16.6304 119.128 16.6304C125.968 16.6304 125.194 16.583 127.758 16.583C128.114 16.5752 128.469 16.591 128.822 16.6304C129.492 15.4525 130.348 14.7578 130.348 13.0936C130.348 11.363 128.892 10.043 126.975 10.043" fill="black"/>
<path d="M101.926 8.87363H103.243C103.326 8.33774 103.506 7.8217 103.777 7.35156H102.321C101.689 7.35156 100.679 7.37367 99.8231 7.44314C99.04 8.48209 97.6284 9.72943 97.6284 11.4884C97.6284 12.8968 98.5316 13.6578 100.262 13.6578H102.296C102.135 14.9747 100.865 15.4136 99.04 15.4136H97.7452C95.8505 15.4136 95.1116 14.5136 95.1116 13.1747C95.1305 12.4528 95.2076 11.7336 95.3421 11.0242C94.9831 11.1882 94.6005 11.2948 94.2084 11.34C94.1863 12.1042 94 13.0263 94 14.0431C94 16.0073 95.0642 17.201 97.3284 17.201H98.8063C102.135 17.201 103.499 15.1926 103.499 13.2063C103.499 12.3726 103.221 11.981 102.39 11.981H100.865C99.6179 11.981 98.9926 11.681 98.9926 10.7557C99.0342 10.113 99.2361 9.49093 99.58 8.94633C100.363 8.87273 101.15 8.84843 101.936 8.87363" fill="black"/>
<path d="M110.796 16.6298C111.192 16.431 111.611 16.2835 112.044 16.1908C112.066 7.295 112.091 5.76973 112.113 5.375C111.575 5.66366 110.986 5.84492 110.379 5.90868C110.54 7.10868 110.749 10.4371 110.796 16.6298Z" fill="black"/>
<path d="M106.43 9.9298C106.66 11.2688 106.891 13.9246 106.96 15.3835C106.591 16.3309 105.091 17.1614 104.074 17.6225C104.547 18.0182 104.971 18.4687 105.337 18.9646C105.805 18.6901 106.245 18.3729 106.654 18.0172C107.715 17.0225 108.179 15.6362 108.179 13.833C108.179 12.4246 108.085 10.4856 108.063 9.46875C107.55 9.70303 107.005 9.85847 106.446 9.9298" fill="black"/>
<path d="M64.0156 18.0352C64.06 18.5268 64.06 19.0215 64.0156 19.5131H65.724C65.6766 19.0216 65.6766 18.5267 65.724 18.0352H64.0156Z" fill="black"/>
<path d="M66.1631 18.0352C66.2076 18.5268 66.2076 19.0215 66.1631 19.5131H67.8715C67.8242 19.0216 67.8242 18.5267 67.8715 18.0352H66.1631Z" fill="black"/>
</g>
</svg>
