<svg width="97" height="16" viewBox="0 0 97 16" fill="none" xmlns="http://www.w3.org/2000/svg">
<path d="M31.3416 4.8979C29.9774 4.8979 28.3606 4.8979 27.9216 4.83158C27.8542 5.31932 27.7136 5.79412 27.5048 6.24003C27.8206 6.22103 28.1932 6.21793 29.1942 6.21793C28.5025 7.40183 27.729 8.53623 26.8795 9.61263C26.3016 10.3768 24.8932 10.3516 24.0374 10.3516H23.6837C24.2079 9.79263 24.4543 9.36943 24.4543 7.74313C24.4543 5.91474 23.6458 4.90105 21.8679 4.90105H20.3427C18.4227 6.86843 17.9837 7.65163 17.9837 8.89893C17.9709 9.41913 18.1259 9.92953 18.4258 10.3547H17.5448C15.6753 10.3547 15.2111 10.0105 15.2111 8.55473C15.2111 6.45163 15.2111 5.68737 15.2332 5.27369C14.7522 5.45937 14.247 5.57528 13.7332 5.6179C13.7774 6.20843 13.8216 7.82843 13.8248 9.43583C13.07 10.0105 11.75 10.2947 9.69424 10.3452H9.27744C7.08274 10.3452 6.66584 9.76733 6.64374 8.42843C6.64454 7.11403 6.55174 5.80121 6.36584 4.5C5.89804 4.79761 5.38184 5.01133 4.84064 5.13158C5.13494 6.50353 5.32384 7.89603 5.40584 9.29683C4.63854 9.98523 3.43534 10.3294 2.27644 10.3294C1.64484 10.3294 1.30694 10.1463 1.30694 9.79893V8.73473C0.992138 8.91183 0.647439 9.02953 0.290039 9.08213C0.315339 9.38213 0.315338 10.0294 0.315338 10.56C0.337438 11.5547 0.729037 12.2021 1.97644 12.2021C3.22374 12.2021 4.70484 11.7379 5.07424 11.1158C5.23214 10.8347 5.43114 10.5031 5.57004 10.2505C5.73114 11.5358 6.49214 12.2021 9.09424 12.2021L9.41003 12.1831C11.409 12.12 12.8458 11.8294 13.329 11.2358C13.5185 10.9863 13.7616 10.6421 14.0111 10.3231C14.1627 11.5294 14.99 12.2179 17.3269 12.2179H23.5669C25.6448 12.2179 26.5921 11.8231 27.0785 11.1316C27.3343 10.7842 27.5869 10.3926 27.9342 9.86843C27.9342 11.2989 29.0427 12.2021 30.7764 12.2021C31.4458 12.2021 32.0237 12.1547 32.7406 12.1326C33.41 10.8852 34.2879 10.4684 34.2879 7.85683C34.2879 6.07893 33.1321 4.8979 31.3321 4.8979H31.3416ZM22.6069 10.421C20.2479 10.3989 19.4174 9.66003 19.4174 8.21053C19.4283 7.52293 19.6634 6.85763 20.0869 6.31583H21.35C22.6132 6.31583 22.989 7.03263 22.989 8.23263C22.989 9.52733 22.8974 9.96633 22.5974 10.4273L22.6069 10.421ZM32.7595 10.26C32.2082 10.3356 31.6516 10.3662 31.0953 10.3516C29.7311 10.3516 29.1311 9.82103 29.1311 9.01263C29.1311 8.47583 29.2637 8.00213 30.1985 6.30943H30.8648C32.1816 6.30943 32.8511 7.39583 32.8511 8.62103C32.8771 9.16903 32.8464 9.71833 32.7595 10.26Z" fill="white"/>
<path d="M61.1323 3.52207C61.0843 3.02952 61.0843 2.53356 61.1323 2.04102H59.4453C59.4673 2.50523 59.4673 3.19681 59.4453 3.52207H61.1323Z" fill="white"/>
<path d="M67.5553 0.792969C66.3633 1.75144 65.1213 2.64637 63.8353 3.47402V4.5256C65.4773 3.46139 66.3073 2.8835 67.7633 1.80034C67.6613 1.47648 67.5913 1.14327 67.5553 0.805599" fill="white"/>
<path d="M23.6981 3.52207C23.6539 3.02938 23.6539 2.53371 23.6981 2.04102H21.9897C22.0341 2.5337 22.0341 3.02939 21.9897 3.52207H23.6981Z" fill="white"/>
<path d="M77.6664 5.57824C77.8974 6.9172 78.1273 9.573 78.1973 11.0319C77.8273 11.9793 76.3273 12.8098 75.3073 13.2709C75.7803 13.6667 76.2043 14.1172 76.5703 14.613C77.0383 14.3385 77.4783 14.0213 77.8873 13.6656C78.9483 12.6709 79.4133 11.2846 79.4133 9.4814C79.4133 8.073 79.3183 6.134 79.2963 5.11719C78.7833 5.35147 78.2384 5.50691 77.6794 5.57824" fill="white"/>
<path d="M93.2063 5.69081H87.1053C89.0913 4.74344 90.5253 3.88765 92.0983 2.96554C91.8673 2.5018 91.7173 2.00193 91.6563 1.48765C90.7563 2.20133 87.8664 4.12133 85.3024 5.69081C85.3054 6.1951 85.2604 6.6985 85.1664 7.194H92.7453C94.1793 7.194 95.2873 8.094 95.2873 9.5276C95.2873 9.8055 95.2653 10.1276 95.2403 10.3834C94.8573 10.4233 94.4723 10.4391 94.0873 10.4308H83.9984C83.3664 10.4308 83.0503 10.175 83.0503 9.575V1.02344C82.5413 1.32019 81.9734 1.50232 81.3864 1.55712C81.5474 2.75712 81.6864 5.48238 81.7784 10.3834C81.8004 11.6087 82.3783 12.2782 83.4893 12.2782C92.1993 12.2782 91.4253 12.2308 93.9923 12.2308C94.3473 12.2229 94.7013 12.2388 95.0533 12.2782C95.7233 11.1003 96.5793 10.4055 96.5793 8.7413C96.5793 7.0108 95.1233 5.69081 93.2063 5.69081Z" fill="white"/>
<path d="M71.7523 5.69144H65.6313C67.7133 4.65249 69.0513 3.88828 70.6213 2.96618C70.3933 2.50172 70.2443 2.00208 70.1823 1.48828C69.2823 2.20197 66.3933 4.12197 63.8283 5.69144C63.8323 6.1959 63.7863 6.6994 63.6893 7.1946H71.2683C72.6993 7.1946 73.8103 8.0946 73.8103 9.5283C73.8103 9.8062 73.7854 10.1283 73.7634 10.3841C73.3794 10.424 72.9933 10.4398 72.6073 10.4314H64.3023C62.2213 10.4314 61.3653 10.0367 61.2743 8.4641C61.2043 7.4472 61.1573 6.2535 61.1353 5.11354C60.6233 5.35016 60.0773 5.50672 59.5183 5.57776C59.7483 6.9167 59.9793 9.5756 60.0483 11.0314C59.6793 11.9788 58.1793 12.8093 57.1623 13.2704C57.6293 13.667 58.0483 14.1175 58.4093 14.6125C58.8773 14.338 59.3173 14.0209 59.7263 13.6651C60.4183 13.0056 60.8893 12.1487 61.0753 11.2114C61.4823 11.9441 62.3823 12.2788 63.9173 12.2788C70.7573 12.2788 69.9833 12.2314 72.5473 12.2314C72.9033 12.2236 73.2583 12.2394 73.6113 12.2788C74.2813 11.1009 75.1373 10.4062 75.1373 8.742C75.1373 7.0114 73.6813 5.69144 71.7643 5.69144" fill="white"/>
<path d="M46.5043 6.2916H47.8213C47.9043 5.75571 48.0843 5.23967 48.3553 4.76953H46.8993C46.2673 4.76953 45.2573 4.79164 44.4012 4.86111C43.6181 5.90006 42.2065 7.1474 42.2065 8.9064C42.2065 10.3148 43.1097 11.0758 44.8403 11.0758H46.8743C46.7133 12.3927 45.4433 12.8316 43.6181 12.8316H42.3233C40.4286 12.8316 39.6897 11.9316 39.6897 10.5927C39.7086 9.8708 39.7857 9.1516 39.9202 8.4422C39.5612 8.6062 39.1786 8.7128 38.7865 8.758C38.7644 9.5222 38.5781 10.4443 38.5781 11.4611C38.5781 13.4253 39.6423 14.619 41.9065 14.619H43.3844C46.7133 14.619 48.0773 12.6106 48.0773 10.6243C48.0773 9.7906 47.7993 9.399 46.9683 9.399H45.4433C44.196 9.399 43.5707 9.099 43.5707 8.1737C43.6123 7.531 43.8142 6.9089 44.1581 6.3643C44.9413 6.2907 45.7283 6.2664 46.5143 6.2916" fill="white"/>
<path d="M55.5863 12.2782C55.9823 12.0794 56.4013 11.9319 56.8343 11.8392C56.8563 2.94344 56.8813 1.41817 56.9033 1.02344C56.3653 1.3121 55.7763 1.49336 55.1693 1.55712C55.3303 2.75712 55.5393 6.0855 55.5863 12.2782Z" fill="white"/>
<path d="M51.2193 5.57824C51.4493 6.9172 51.6803 9.573 51.7493 11.0319C51.3803 11.9793 49.8803 12.8098 48.8633 13.2709C49.3363 13.6666 49.7603 14.1171 50.1263 14.613C50.5943 14.3385 51.0343 14.0213 51.4433 13.6656C52.5043 12.6709 52.9683 11.2846 52.9683 9.4814C52.9683 8.073 52.8743 6.134 52.8523 5.11719C52.3393 5.35147 51.7943 5.50691 51.2353 5.57824" fill="white"/>
<path d="M8.80544 13.6836C8.84984 14.1752 8.84984 14.6699 8.80544 15.1615H10.5138C10.4664 14.67 10.4664 14.1751 10.5138 13.6836H8.80544Z" fill="white"/>
<path d="M10.9528 13.6836C10.9973 14.1752 10.9973 14.6699 10.9528 15.1615H12.6612C12.6139 14.67 12.6139 14.1751 12.6612 13.6836H10.9528Z" fill="white"/>
</svg>
