<svg width="56" height="56" viewBox="0 0 56 56" fill="none" xmlns="http://www.w3.org/2000/svg">
<path d="M28.9603 3H27.5148C22.8122 3 19 6.81223 19 11.5148V23.1462C19 27.8488 22.8122 31.661 27.5148 31.661H28.9603C33.6629 31.661 37.4752 27.8488 37.4752 23.1462V11.5148C37.4752 6.81223 33.6629 3 28.9603 3Z" stroke="white" stroke-width="2.59775"/>
<path fill-rule="evenodd" clip-rule="evenodd" d="M22.2782 39.2676C22.67 38.8761 23.3051 38.8761 23.6969 39.2676L27.0104 42.5812C27.3198 42.8908 27.5102 43.0798 27.6635 43.21C27.7349 43.2707 27.7818 43.3041 27.8117 43.3225C27.8259 43.3314 27.8353 43.3363 27.8406 43.3386C27.8455 43.3409 27.8483 43.3419 27.8483 43.3419C27.9491 43.3745 28.0576 43.3745 28.1584 43.3419C28.1584 43.3419 28.1612 43.3409 28.1661 43.3386C28.1715 43.3363 28.1808 43.3314 28.1951 43.3225C28.2249 43.3041 28.2718 43.2707 28.3432 43.21C28.4965 43.0798 28.6869 42.8908 28.9963 42.5812L32.3099 39.2676C32.7017 38.8761 33.3368 38.8761 33.7286 39.2676C34.1203 39.6594 34.1203 40.2948 33.7286 40.6865L30.4152 43.9999L30.3896 44.0255C30.1135 44.3013 29.8653 44.5498 29.6417 44.7395C29.4023 44.9428 29.1263 45.1369 28.7784 45.2501C28.2746 45.4139 27.7321 45.4139 27.2284 45.2501C26.8805 45.1369 26.6044 44.9428 26.365 44.7395C26.1415 44.5498 25.8932 44.3013 25.6172 44.0255C25.6088 44.0169 25.6002 44.0085 25.5915 43.9999L22.2782 40.6865C21.8864 40.2948 21.8864 39.6594 22.2782 39.2676Z" fill="white"/>
<path fill-rule="evenodd" clip-rule="evenodd" d="M22.2782 45.0555C22.67 44.6637 23.3051 44.6637 23.6969 45.0555L27.0104 48.3688C27.3198 48.6787 27.5102 48.8677 27.6635 48.9979C27.7349 49.0585 27.7818 49.0917 27.8117 49.1104C27.8259 49.1192 27.8353 49.1239 27.8406 49.1264C27.8455 49.1288 27.8483 49.1297 27.8483 49.1297C27.9491 49.1624 28.0576 49.1624 28.1584 49.1297C28.1584 49.1297 28.1612 49.1288 28.1661 49.1264C28.1715 49.1239 28.1808 49.1192 28.1951 49.1104C28.2249 49.0917 28.2718 49.0585 28.3432 48.9979C28.4965 48.8677 28.6869 48.6787 28.9963 48.3688L32.3099 45.0555C32.7017 44.6637 33.3368 44.6637 33.7286 45.0555C34.1203 45.4472 34.1203 46.0824 33.7286 46.4741L30.4152 49.7877L30.3896 49.8131C30.1135 50.0892 29.8653 50.3377 29.6417 50.5274C29.4023 50.7306 29.1494 50.9126 28.7784 51.0379C28.2049 51.2313 27.7321 51.2015 27.2284 51.0379C26.8805 50.9247 26.6044 50.7306 26.365 50.5274C26.1415 50.3377 25.8932 50.0892 25.6172 49.8131C25.6088 49.8047 25.6002 49.7961 25.5915 49.7877L22.2782 46.4741C21.8864 46.0824 21.8864 45.4472 22.2782 45.0555Z" fill="white"/>
<path d="M29.2991 12.5167C29.2991 11.8005 28.7185 11.22 28.0024 11.22C27.2863 11.22 26.7058 11.8005 26.7058 12.5167V15.7424C26.7058 16.4585 27.2863 17.039 28.0024 17.039C28.7185 17.039 29.2991 16.4585 29.2991 15.7424V12.5167Z" fill="white"/>
</svg>
