<svg width="312" height="222" viewBox="0 0 312 222" fill="none" xmlns="http://www.w3.org/2000/svg">
<g style="mix-blend-mode:hard-light">
<path d="M249.02 126.24C249.02 173.993 210.308 212.705 162.555 212.705C114.801 212.705 76.0894 173.993 76.0894 126.24C76.0894 78.486 114.801 39.7741 162.555 39.7741C210.308 39.7741 249.02 78.486 249.02 126.24Z" fill="white"/>
<path d="M249.02 126.24C249.02 173.993 210.308 212.705 162.555 212.705C114.801 212.705 76.0894 173.993 76.0894 126.24C76.0894 78.486 114.801 39.7741 162.555 39.7741C210.308 39.7741 249.02 78.486 249.02 126.24Z" fill="black" fill-opacity="0.2"/>
<path d="M163.42 140.033C172.545 140.033 179.91 132.667 179.91 123.543V90.5623C179.91 81.4377 172.545 74.0721 163.42 74.0721C154.295 74.0721 146.93 81.4377 146.93 90.5623V123.543C146.93 132.667 154.295 140.033 163.42 140.033Z" fill="white"/>
<path d="M192.553 123.543H201.897C201.897 142.286 186.946 157.787 168.916 160.481V178.51H157.923V160.481C139.894 157.787 124.943 142.286 124.943 123.543H134.287C134.287 140.033 148.249 151.576 163.42 151.576C178.591 151.576 192.553 140.033 192.553 123.543Z" fill="white"/>
<path d="M204.37 8.71139C206.825 11.106 213.009 11.2405 213.009 11.2405C213.009 11.2405 206.851 11.9168 204.37 14.1443C201.805 16.4467 201.522 22.481 201.522 22.481C201.522 22.481 201.402 16.4525 198.863 14.1443C196.345 11.8547 190.224 11.2405 190.224 11.2405C190.224 11.2405 196.373 11.1658 198.863 8.71139C201.306 6.30431 201.522 0 201.522 0C201.522 0 201.904 6.30622 204.37 8.71139Z" fill="white"/>
<path d="M291.399 79.5698C297.253 85.2799 312 85.6008 312 85.6008C312 85.6008 297.315 87.2136 291.399 92.5252C285.283 98.0155 284.607 112.405 284.607 112.405C284.607 112.405 284.321 98.0293 278.268 92.5252C272.264 87.0654 257.667 85.6008 257.667 85.6008C257.667 85.6008 272.33 85.4226 278.268 79.5698C284.092 73.8299 284.607 58.7965 284.607 58.7965C284.607 58.7965 285.519 73.8344 291.399 79.5698Z" fill="white"/>
<path d="M20.6743 156.265C24.2621 159.764 33.3009 159.961 33.3009 159.961C33.3009 159.961 24.3005 160.95 20.6743 164.205C16.9262 167.57 16.5117 176.389 16.5117 176.389C16.5117 176.389 16.3366 167.579 12.6266 164.205C8.94649 160.859 0 159.961 0 159.961C0 159.961 8.98708 159.852 12.6266 156.265C16.196 152.747 16.5117 143.533 16.5117 143.533C16.5117 143.533 17.0706 152.749 20.6743 156.265Z" fill="white"/>
<path d="M34.9466 103.453C36.8097 105.27 41.5035 105.373 41.5035 105.373C41.5035 105.373 36.8296 105.886 34.9466 107.576C33.0002 109.324 32.7849 113.904 32.7849 113.904C32.7849 113.904 32.694 109.328 30.7674 107.576C28.8563 105.839 24.2104 105.373 24.2104 105.373C24.2104 105.373 28.8774 105.316 30.7674 103.453C32.621 101.626 32.7849 96.8413 32.7849 96.8413C32.7849 96.8413 33.0752 101.628 34.9466 103.453Z" fill="white"/>
</g>
</svg>
